HIERARCHY
ROOT Hips
{
	OFFSET 0.00000 0.00000 0.00000
	CHANNELS 6 Xposition Yposition Zposition Zrotation Yrotation Xrotation 
	JOINT LHipJoint
	{
		OFFSET 0 0 0
		CHANNELS 3 Zrotation Yrotation Xrotation
		JOINT LeftUpLeg
		{
			OFFSET 1.29432 -1.88279 0.59910
			CHANNELS 3 Zrotation Yrotation Xrotation
			JOINT LeftLeg
			{
				OFFSET 2.63039 -7.22694 0.00000
				CHANNELS 3 Zrotation Yrotation Xrotation
				JOINT LeftFoot
				{
					OFFSET 2.70674 -7.43672 0.00000
					CHANNELS 3 Zrotation Yrotation Xrotation
					JOINT LeftToeBase
					{
						OFFSET 0.15066 -0.41394 2.09027
						CHANNELS 3 Zrotation Yrotation Xrotation
						End Site
						{
							OFFSET 0.00000 -0.00000 1.07518
						}
					}
				}
			}
		}
	}
	JOINT RHipJoint
	{
		OFFSET 0 0 0
		CHANNELS 3 Zrotation Yrotation Xrotation
		JOINT RightUpLeg
		{
			OFFSET -1.37068 -1.88279 0.59910
			CHANNELS 3 Zrotation Yrotation Xrotation
			JOINT RightLeg
			{
				OFFSET -2.57023 -7.06166 0.00000
				CHANNELS 3 Zrotation Yrotation Xrotation
				JOINT RightFoot
				{
					OFFSET -2.76461 -7.59570 0.00000
					CHANNELS 3 Zrotation Yrotation Xrotation
					JOINT RightToeBase
					{
						OFFSET -0.24175 -0.64785 2.19719
						CHANNELS 3 Zrotation Yrotation Xrotation
						End Site
						{
							OFFSET -0.00000 -0.00000 1.14803
						}
					}
				}
			}
		}
	}
	JOINT LowerBack
	{
		OFFSET 0 0 0
		CHANNELS 3 Zrotation Yrotation Xrotation
		JOINT Spine
		{
			OFFSET -0.03138 2.03983 -0.23106
			CHANNELS 3 Zrotation Yrotation Xrotation
			JOINT Spine1
			{
				OFFSET -0.00325 2.06238 -0.06878
				CHANNELS 3 Zrotation Yrotation Xrotation
				JOINT Neck
				{
					OFFSET 0 0 0
					CHANNELS 3 Zrotation Yrotation Xrotation
					JOINT Neck1
					{
						OFFSET -0.00002 1.75318 0.18090
						CHANNELS 3 Zrotation Yrotation Xrotation
						JOINT Head
						{
							OFFSET 0.08806 1.75856 -0.25387
							CHANNELS 3 Zrotation Yrotation Xrotation
							End Site
							{
								OFFSET 0.02554 1.78597 -0.10684
							}
						}
					}
				}
				JOINT LeftShoulder
				{
					OFFSET 0 0 0
					CHANNELS 3 Zrotation Yrotation Xrotation
					JOINT LeftArm
					{
						OFFSET 3.09657 1.33597 -0.04414
						CHANNELS 3 Zrotation Yrotation Xrotation
						JOINT LeftForeArm
						{
							OFFSET 5.34298 -0.00000 -0.00000
							CHANNELS 3 Zrotation Yrotation Xrotation
							JOINT LeftHand
							{
								OFFSET 3.67262 -0.00000 -0.00000
								CHANNELS 3 Zrotation Yrotation Xrotation
								JOINT LeftFingerBase
								{
									OFFSET 0 0 0
									CHANNELS 3 Zrotation Yrotation Xrotation
									JOINT LeftHandIndex1
									{
										OFFSET 0.59930 -0.00000 -0.00000
										CHANNELS 3 Zrotation Yrotation Xrotation
										End Site
										{
											OFFSET 0.48317 -0.00000 -0.00000
										}
									}
								}
								JOINT LThumb
								{
									OFFSET 0 0 0
									CHANNELS 3 Zrotation Yrotation Xrotation
									End Site
									{
										OFFSET 0.49055 -0.00000 0.49055
									}
								}
							}
						}
					}
				}
				JOINT RightShoulder
				{
					OFFSET 0 0 0
					CHANNELS 3 Zrotation Yrotation Xrotation
					JOINT RightArm
					{
						OFFSET -3.16460 1.32273 -0.23382
						CHANNELS 3 Zrotation Yrotation Xrotation
						JOINT RightForeArm
						{
							OFFSET -5.54967 -0.01834 0.03348
							CHANNELS 3 Zrotation Yrotation Xrotation
							JOINT RightHand
							{
								OFFSET -3.69401 -0.00000 0.00000
								CHANNELS 3 Zrotation Yrotation Xrotation
								JOINT RightFingerBase
								{
									OFFSET 0 0 0
									CHANNELS 3 Zrotation Yrotation Xrotation
									JOINT RightHandIndex1
									{
										OFFSET -0.63811 -0.00000 0.00000
										CHANNELS 3 Zrotation Yrotation Xrotation
										End Site
										{
											OFFSET -0.51446 -0.00000 0.00000
										}
									}
								}
								JOINT RThumb
								{
									OFFSET 0 0 0
									CHANNELS 3 Zrotation Yrotation Xrotation
									End Site
									{
										OFFSET -0.52232 -0.00000 0.52232
									}
								}
							}
						}
					}
				}
			}
		}
	}
}
MOTION
Frames: 9
Frame Time: .0083333
7.5243 10.5503 7.8884 -179.7880 -4.8103 161.0110 0.0000 0.0000 0.0000 16.7127 4.5154 -55.4166 28.1131 18.3424 114.3700 1.8768 -11.3291 -24.6900 0.5588 -4.7880 -13.3049 0.0000 0.0000 0.0000 -18.6735 0.2955 -59.0825 -26.6141 -18.9171 109.6801 -1.1600 6.4783 -19.2383 -1.2511 7.0913 -19.9861 -0.9077 1.2427 29.6116 -2.0779 -1.7619 10.8117 -1.1148 -2.0911 -4.1764 -3.4166 -3.3531 -13.9866 3.0369 -4.2783 10.8515 1.1268 -2.0031 5.7062 -0.0000 0.0000 0.0000 -79.5191 -44.8608 46.5440 50.4568 -53.1781 -26.5394 -0.0000 -0.0000 26.3644 24.2878 18.6337 8.2047 -7.1250 0.0000 -0.0000 -3.8719 50.2413 -0.5009 -0.0000 0.0000 0.0000 89.5000 44.0468 41.9965 -50.3031 53.1170 -26.4164 0.0000 0.0000 29.6345 -22.4268 25.4760 -10.0664 7.1250 -0.0000 -0.0000 4.3844 -2.7806 4.1790
7.5225 10.5434 7.8945 -179.5040 -4.7567 160.9300 0.0000 0.0000 0.0000 17.0982 4.7956 -55.4942 28.1186 18.3400 114.3877 1.9559 -10.4375 -25.1356 1.0063 -6.3832 -17.9005 0.0000 0.0000 0.0000 -18.3409 0.4872 -59.0340 -26.6209 -18.9148 109.7011 -1.1595 6.3501 -19.2365 -1.1629 6.8459 -19.2598 -0.5356 1.1794 29.6193 -2.0231 -1.7376 10.8349 -1.2768 -2.0739 -4.1555 -3.4370 -3.3790 -14.0544 3.0755 -4.3140 10.9047 1.1376 -2.0177 5.7368 -0.0000 -0.0000 0.0000 -79.3955 -45.0435 46.7096 50.0773 -53.0266 -26.2359 -0.0000 -0.0000 26.0660 24.1454 18.4360 8.0687 -7.1250 0.0000 -0.0000 -3.9652 50.0064 -0.4900 -0.0000 -0.0000 0.0000 89.4288 44.1458 41.9297 -50.1541 53.0575 -26.2973 0.0000 0.0000 29.5806 -22.6680 25.1258 -10.0562 7.1250 -0.0000 -0.0000 4.1976 -3.1009 3.9752
7.5203 10.5411 7.9019 -179.2890 -4.7524 160.6800 0.0000 0.0000 0.0000 17.3502 4.9133 -55.2911 28.1058 18.3456 114.3470 1.8840 -11.1626 -24.7223 0.9235 -6.1223 -17.1398 0.0000 0.0000 0.0000 -18.0826 0.6323 -58.7561 -26.6161 -18.9164 109.6864 -1.1629 6.2867 -19.2663 -1.1415 6.7846 -19.0789 -0.2166 1.1188 29.8502 -1.9931 -1.7522 10.8659 -1.4180 -2.0851 -4.2287 -3.5397 -3.4787 -13.8186 3.2521 -4.4550 10.6977 1.2013 -2.0805 5.6436 0.0000 0.0000 0.0000 -79.0810 -45.2126 46.9100 49.5989 -52.8324 -25.8542 -0.0000 -0.0000 25.6109 24.2061 18.8954 8.2830 -7.1250 0.0000 -0.0000 -4.0163 50.5072 -0.5459 0.0000 0.0000 0.0000 89.4119 44.1060 41.8621 -50.2021 53.0767 -26.3357 0.0000 0.0000 29.5706 -23.0578 24.7302 -10.0972 7.1250 -0.0000 -0.0000 3.9143 -3.4419 3.6810
7.5210 10.5364 7.9081 -179.4390 -4.8178 160.4330 0.0000 0.0000 0.0000 17.1908 4.8651 -55.0316 28.1003 18.3479 114.3293 1.9291 -10.9236 -24.9937 0.8919 -6.0194 -16.8407 0.0000 0.0000 0.0000 -18.2798 0.7328 -58.5174 -26.6202 -18.9150 109.6990 -1.1571 6.3031 -19.2173 -1.1450 6.7948 -19.1090 -0.2943 1.1572 30.1231 -2.0549 -1.7665 10.8917 -1.4309 -2.1060 -4.3257 -3.6165 -3.5853 -13.5916 3.4678 -4.6157 10.4978 1.2713 -2.1497 5.5557 -0.0000 -0.0000 0.0000 -78.8779 -45.3598 47.0497 49.0466 -52.6036 -25.4147 -0.0000 -0.0000 25.4058 24.4465 18.9263 8.3878 -7.1250 0.0000 -0.0000 -3.7852 50.5811 -0.5213 -0.0000 -0.0000 0.0000 89.3714 44.1371 41.8561 -50.0254 53.0057 -26.1944 0.0000 0.0000 29.4582 -23.3394 24.8930 -10.2940 7.1250 -0.0000 -0.0000 3.7615 -3.2183 3.5522
7.5255 10.5366 7.9099 -179.1430 -4.7043 160.4600 0.0000 0.0000 0.0000 17.6564 5.0110 -55.1262 28.0966 18.3495 114.3178 1.7798 -12.4351 -24.1857 0.4299 -4.2078 -11.6621 0.0000 0.0000 0.0000 -17.8340 1.0176 -58.5921 -26.6253 -18.9133 109.7147 -1.1532 5.8115 -19.2014 -1.2260 7.0225 -19.7821 0.0536 1.0885 30.0220 -2.0324 -1.7376 10.8795 -1.6182 -2.0790 -4.2947 -3.6085 -3.5841 -13.4893 3.5889 -4.6315 10.3623 1.3089 -2.1503 5.4996 -0.0000 0.0000 0.0000 -78.8168 -45.5412 47.1574 48.4638 -52.3568 -24.9525 -0.0000 -0.0000 25.2105 24.8452 18.1685 8.2154 -7.1250 0.0000 -0.0000 -3.2145 49.8350 -0.3835 -0.0000 0.0000 0.0000 89.2804 44.1818 41.8977 -49.9420 52.9721 -26.1279 0.0000 0.0000 29.1151 -22.9166 25.1360 -10.1803 7.1250 -0.0000 -0.0000 4.0475 -3.0436 3.8366
7.5294 10.5418 7.9100 -178.6860 -4.5507 160.4830 0.0000 0.0000 0.0000 18.2644 5.1921 -55.2093 28.0881 18.3532 114.2907 1.8103 -12.7003 -24.4181 0.4748 -4.4190 -12.2586 0.0000 0.0000 0.0000 -17.1782 1.3396 -58.5974 -26.6192 -18.9154 109.6958 -1.1510 5.2805 -19.2136 -1.3345 7.3148 -20.6515 0.5702 1.0013 29.9116 -1.9550 -1.6840 10.8848 -1.8508 -2.0388 -4.2374 -3.5032 -3.5497 -13.5651 3.5127 -4.5922 10.3748 1.2704 -2.1313 5.5103 0.0000 0.0000 0.0000 -78.9127 -45.7832 47.2843 48.1869 -52.2376 -24.7334 -0.0000 -0.0000 25.0507 24.9499 17.5943 8.0051 -7.1250 0.0000 -0.0000 -2.9872 49.2338 -0.3121 0.0000 0.0000 0.0000 89.1697 44.2030 41.8085 -50.0920 53.0325 -26.2476 0.0000 0.0000 28.8532 -22.5555 25.1388 -10.0066 7.1250 -0.0000 -0.0000 4.2675 -3.1082 4.0412
7.5296 10.5408 7.9158 -178.4550 -4.4975 160.3250 0.0000 0.0000 0.0000 18.5137 5.2204 -55.1206 28.0792 18.3570 114.2626 1.8121 -12.5427 -24.4082 0.5959 -4.9421 -13.7434 0.0000 0.0000 0.0000 -16.8853 1.5446 -58.4294 -26.6114 -18.9180 109.6717 -1.1462 5.1032 -19.1854 -1.3666 7.3988 -20.9022 0.8592 1.0165 30.0514 -1.8569 -1.6109 10.9676 -1.9319 -2.0133 -4.2028 -3.4466 -3.5942 -13.8115 3.3751 -4.6367 10.4449 1.2100 -2.1567 5.5700 0.0000 0.0000 0.0000 -79.0561 -46.0680 47.4732 48.1928 -52.2401 -24.7381 -0.0000 -0.0000 24.9782 24.6953 17.6844 7.9522 -7.1250 0.0000 -0.0000 -3.2553 49.2900 -0.3447 0.0000 0.0000 0.0000 88.9709 44.4430 41.5664 -49.9335 52.9686 -26.1210 0.0000 0.0000 28.7744 -22.8111 24.9008 -10.0423 7.1250 -0.0000 -0.0000 4.0845 -3.3093 3.8519
7.5275 10.5367 7.9245 -178.3910 -4.5494 160.2520 0.0000 0.0000 0.0000 18.5522 5.0931 -55.1164 28.0736 18.3593 114.2448 1.7809 -12.5943 -24.2145 0.6481 -5.1499 -14.3367 0.0000 0.0000 0.0000 -16.8392 1.5129 -58.3593 -26.6005 -18.9217 109.6381 -1.1422 5.0309 -19.1569 -1.3807 7.4354 -21.0118 0.9383 0.9694 30.1831 -1.7936 -1.6638 11.0008 -1.8881 -2.0466 -4.2259 -3.6066 -3.6018 -14.0182 3.3793 -4.6101 10.5224 1.2359 -2.1466 5.6316 0.0000 0.0000 0.0000 -79.1951 -46.2112 47.3270 48.2577 -52.2681 -24.7894 -0.0000 -0.0000 25.0419 24.6058 17.8337 7.9838 -7.1250 0.0000 -0.0000 -3.3754 49.4361 -0.3696 0.0000 0.0000 0.0000 88.9668 44.7387 41.6100 -49.6994 52.8735 -25.9343 0.0000 0.0000 28.7947 -22.9180 24.8409 -10.0714 7.1250 -0.0000 -0.0000 4.0125 -3.3520 3.7804
7.5277 10.5363 7.9284 -178.4990 -4.6561 160.2490 0.0000 0.0000 0.0000 18.3945 4.9200 -55.1078 28.0690 18.3613 114.2302 1.7445 -12.9025 -24.0238 0.4896 -4.4863 -12.4490 0.0000 0.0000 0.0000 -17.0121 1.3928 -58.3453 -26.5988 -18.9223 109.6328 -1.1406 5.0651 -19.1399 -1.3763 7.4238 -20.9773 0.8110 0.9224 30.2978 -1.8137 -1.7507 10.9387 -1.8041 -2.0867 -4.3520 -3.7181 -3.5613 -13.9786 3.4167 -4.5414 10.5546 1.2724 -2.1154 5.6362 0.0000 0.0000 0.0000 -79.4104 -46.1849 47.0693 48.2491 -52.2645 -24.7826 -0.0000 -0.0000 25.0980 24.5054 17.7161 7.8972 -7.1250 0.0000 -0.0000 -3.4479 49.2937 -0.3655 0.0000 0.0000 0.0000 88.9966 44.7384 41.7929 -49.7349 52.8880 -25.9626 0.0000 0.0000 28.6306 -22.9206 24.9378 -10.1087 7.1250 -0.0000 -0.0000 4.0220 -3.2501 3.7970
